<svg xmlns="http://www.w3.org/2000/svg" viewBox="0 0 215.86 319.73"><defs><style>.cls-1{fill:#f5c39c;}.cls-2{fill:#fff;}.cls-3{fill:#e6e7e8;}.cls-4{fill:#4463a8;}.cls-5{fill:#d1492f;}.cls-6{fill:#010101;}</style></defs><title>Zeman_1</title><g id="Vrstva_2" data-name="Vrstva 2"><g id="Vrstva_1-2" data-name="Vrstva 1"><polygon class="cls-1" points="85.95 56.97 70.5 61.87 58.07 77.7 49.02 95.41 42.24 121.41 42.24 134.98 33.57 148.92 30.18 151.19 26.41 133.47 19.63 122.17 10.59 124.81 7.95 138 14.73 154.95 16.61 164.75 13.6 182.09 15.86 190 24.15 191.88 38.47 252.93 63.34 297.02 84.07 309.08 100.27 311.34 124.39 304.94 145.87 287.6 166.22 260.09 172.63 235.97 172.28 214.12 172.25 212.23 173.38 206.2 174.51 197.54 173.98 214.28 176.89 216.64 184.81 212.47 192.02 190.54 198.69 177.77 209.65 161.11 207.41 152.55 194.1 157.17 178.34 186.24 173.72 163.96 167.47 148.47 171.82 132.44 178.07 115.6 174.26 85.44 159.59 74.03 145.46 77.83 127.53 93.59 131.06 80.82 124.81 84.9 115.31 96.85 115.03 90.6 122.1 76.2 116.94 77.29 108.24 87.07 113.68 72.13 100.36 81.64 106.61 63.7 100.09 62.62 103.08 58.27 90.31 63.43 90.31 55.83 85.95 56.97"/><g id="oUXtfc"><path class="cls-2" d="M215.86,319.73H0V0H215.86ZM174.37,217.21c6.83,1.82,11.08-1.82,13.69-7.38a40.05,40.05,0,0,0,3.69-12.55c.9-8.63,4.07-15.67,10.65-21.52a27.8,27.8,0,0,0,9-16.12c1.2-6.86-3.39-11-10.21-9.52-.76.16-1.52.26-3.22.53-2.45-7.73-4.82-15.42-7.34-23.06-1.69-5.14-.76-10.22,1.22-14.79,6.91-16,5.09-30.39-6.47-43.71-5.63-6.49-11-13.27-12.6-22.28-1.57-8.84-7.25-15.27-14.15-20.5A125.72,125.72,0,0,0,125.93,9c-12.49-4.63-24.75-6.8-37.36-.06C77.72,14.7,68.46,21.84,63.18,33.31A3.51,3.51,0,0,1,61,35C47.11,38,34.9,52.11,33.43,66.73c-1.52,15.2-5.73,29.56-13.76,42.69a5.73,5.73,0,0,0-.34,2.68c0,2,0,3.92,0,5.83-7.64,1.18-12.24,5.84-12.12,13,.14,8.13,1.09,16.28,5.73,23.31,2.1,3.18,2.3,6.3,1.74,9.85-1,6.55-2.35,13.12-2.64,19.73-.36,8.17,2.71,10.87,10.57,10.87,1.67,9.31,2.92,18.69,5.13,27.84,1.52,6.27,4.81,12.1,6.57,18.34a170.86,170.86,0,0,0,26.27,54.2c7.73,10.71,18.73,16.14,30.89,18,22.64,3.45,40.66-6.33,55.23-23,5.42-6.2,10.14-13,15.12-19.57,7.62-10.08,13.16-20.91,12.62-34.07C174.16,230.23,174.37,224,174.37,217.21Z"/><path d="M174.37,217.21c0,6.8-.21,13,0,19.24.54,13.16-5,24-12.62,34.07-5,6.58-9.7,13.38-15.12,19.57-14.58,16.68-32.59,26.46-55.23,23-12.16-1.85-23.16-7.28-30.89-18a170.86,170.86,0,0,1-26.27-54.2c-1.76-6.24-5-12.07-6.57-18.34-2.22-9.15-3.47-18.53-5.13-27.84-7.86,0-10.93-2.7-10.57-10.87.29-6.6,1.59-13.17,2.64-19.73.57-3.55.36-6.68-1.74-9.85-4.63-7-5.59-15.18-5.73-23.31-.12-7.2,4.48-11.86,12.12-13,0-1.91,0-3.87,0-5.83a5.73,5.73,0,0,1,.34-2.68c8-13.13,12.24-27.5,13.76-42.69C34.9,52.11,47.11,38,61,35a3.51,3.51,0,0,0,2.15-1.7C68.46,21.84,77.72,14.7,88.57,8.91c12.61-6.74,24.87-4.57,37.36.06a125.72,125.72,0,0,1,32.65,17.34c6.91,5.23,12.58,11.66,14.15,20.5,1.6,9,7,15.79,12.6,22.28,11.56,13.33,13.38,27.68,6.47,43.71-2,4.58-2.91,9.65-1.22,14.79,2.51,7.64,4.89,15.33,7.34,23.06,1.7-.28,2.47-.37,3.22-.53,6.82-1.45,11.41,2.66,10.21,9.52a27.8,27.8,0,0,1-9,16.12c-6.59,5.85-9.75,12.89-10.65,21.52a40.05,40.05,0,0,1-3.69,12.55C185.46,215.39,181.2,219,174.37,217.21ZM100.7,59.83c-3.65,2-6.47,3.58-9.37,5a20,20,0,0,1-3.58,1,26.76,26.76,0,0,1-.21-4.14,21.73,21.73,0,0,1,1.16-3.86c-10.94.51-19.31,4.87-24.62,13.24-11.58,18.24-20.26,37.7-21.16,59.82-.17,4.13-.7,7.83-4.25,11-2.28,2-3.35,5.57-4.56,8.6A55.5,55.5,0,0,0,32.18,158l-1.07,0-2.28-7.9c-.53,3.23-1.4,7.55-1.9,11.92-.37,3.19-.28,6.44-.33,9.66,0,1.53.12,3.06.18,4.59a48.84,48.84,0,0,1-3.36-3.67,4.27,4.27,0,0,1-.59-2.29c-.13-2.9.55-6.06-.39-8.65-1.6-4.42-.93-8.44.69-12.39a8.22,8.22,0,0,0-1.39-8.92c-.8-1-2.19-1.5-3.31-2.23-.67,1-1.91,2.09-1.89,3.12,0,3.68,0,7.5.93,11a29.61,29.61,0,0,1,.13,15.26A71,71,0,0,0,16,184.88c.07,4.61,3.46,5.9,7.18,3.44A21.13,21.13,0,0,1,25.92,187c1.58,8.55,2.75,16.71,4.66,24.7,2.6,10.85,4.9,21.9,8.91,32.25,4.94,12.72,11.51,24.8,17.37,37.16C63.81,295.7,75.51,304.56,91,308c17.3,3.82,31.92-4.21,44.76-13.81,11.58-8.66,20-21,27-33.84,5.23-9.63,9.37-19.87,7.33-31.29-1.7-9.52-.73-18.78,1.52-28.07,1.89-7.78,5.86-15.3,3.42-23.73-1.76-6.07-2.42-12.76-5.5-18.07-4.76-8.22-6.72-16.57-.78-25.2,10.21-14.84,8.54-31,2.87-46.68-4.17-11.56-17.68-14.3-27-6.34-6.54,5.62-12.9,11.46-19.88,17.67-1.47-6.15,2.46-10.13,4.29-15.28-7.36,4.31-11,11.14-16,18.16-2-9.7,2.58-16.52,6.37-24.16-6.61,3.9-9.87,9.53-12.44,16.19-3.35-7.91.89-13.22,4.5-18.78-5.32,2.48-9.32,6.14-11,12.3-2.79-3.51-2.79-3.51,2.29-16.29-3.91.33-4.35,6.52-9.83,4.82l7.9-8.79-.26-.36-7.51,4.49-1-1Zm79.71,58.35c1.94-.94,5.86-1.52,6.72-3.46,5.76-13,8.21-26.32-2.29-38.18-8-9-11.13-20.43-16.71-30.62-2.26-4.12-4.81-8.35-8.17-11.53-9.18-8.71-20.24-14.6-31.93-19.3-4.81-1.93-9.52-4.59-14.52-5.45-19.19-3.28-38.82,6.46-46,26.6-.72,2-1.73,2.66-3.83,2.14-4-1-7.41.61-10.17,3.29A105.14,105.14,0,0,0,46.16,50c-9.48,11.35-7.59,26.18-11.87,39.12,0,.07.16.2.47.59,5-2.57,10.32-3.91,15.69.07,2.39-5.25,4.53-10.23,6.9-15.11,4.83-10,12.49-17,23.19-19.89,9.16-2.45,18.58-3.94,27.94-5.56,2.49-.43,5.17.24,7.76.41l-.08,1.15c-4.62.57-9.3.83-13.84,1.78-5.41,1.13-9.76,4.95-10.71,8.57,10.26-4.76,14.91-7.4,19.85-2.77L104,61.6c11.44-2.6,11.79-2.62,14.71,0l-5.06,2.26,5.53,1.29c-8.92,3-12.33,5.65-13.76,10.71,4.86-2.89,9.14-7.23,15.66-5.59-4,3.4-8.63,6-10.46,11.35,4.21-5.36,9.25-8.69,16.18-7.79-6.48,4.5-8.15,11.57-10.77,18.13,6.09-6,11-13.44,20.78-14.26L130,87.32l1.18,1c5-4.17,9.79-8.52,14.93-12.46,4.91-3.76,10.41-5.66,16.81-4,7.86,2,11.35,8,12.78,14.9C177.86,96.89,178.86,107.34,180.41,118.18ZM177,215c3.06-2.68,5.95-4,6.85-6.22a118.09,118.09,0,0,0,6.32-19.21c1.21-5.36,3-10,6.86-14a74.77,74.77,0,0,0,10-12.84c1-1.69.31-5.39-1-7.08-.89-1.14-5-1.32-6.33-.25-4.2,3.33-8.94,6.82-11.35,11.38a119.1,119.1,0,0,0-13.46,43.44C174.66,211.34,175.82,212.6,177,215ZM13.91,151c-.43-4.48-.77-7.88-1.09-11.28-.36-3.73,2.16-5.65,5.09-6,2-.24,4.17,1.44,6.8,2.47a65.53,65.53,0,0,0-2.41-7.48c-1.3-2.86-3.26-5.7-6.9-4.83-3.26.78-4.53,3.67-5.15,6.92C8.91,137.75,11.27,143.9,13.91,151Zm176.93,3.39,1-.71c-.64-2.14-.6-5.17-2-6.25-5.15-3.89-14.65-2.3-19,2.82l2.14,3.54C179.19,151.28,185.08,150.66,190.83,154.43Zm-22.18-8.2,1.41.67c6.28-3.95,12.7-6.81,20.41-2.57-.68-2.66-1.23-6.1-2.81-6.67-5.9-2.13-11.86-1.3-16.66,3.07C169.66,142,169.41,144.37,168.66,146.24ZM23.21,122.1l17.18,1.31c1.7-4.9,1.51-5.4-3.92-6.31-2.73-.46-5.55-.31-8.33-.53C24.21,116.25,22.38,117.83,23.21,122.1Zm19.94-10.21c-6.39-4.71-17.66-3.46-18.85,1.78L42,115.39ZM25.05,124,24,125.67c1.25,1.61,2.2,4.08,3.82,4.65,3.78,1.33,7.88,1.74,12.88,2.73-.8-2.07-1-4.73-2.13-5.15A139.73,139.73,0,0,0,25.05,124Zm1.65,8.41,4.45,13.21,7.71-9.32Zm163.55,24.69c-3.64-4-11.08-4.06-14-1.91-.81.59-1.2,1.77-1.77,2.68a11.37,11.37,0,0,0,2.8,1.07c3.43.35,6.87.53,10.95.82ZM48.5,95c1.25-3.08.31-5.3-3.37-5.21-3,.08-6.06,1.35-9,2.33a19.86,19.86,0,0,0-3.76,2.23l.5.66Zm124,40,15.26-1.44c-1.22-1.92-1.9-4.41-3.37-5C180.45,127,174,130.87,172.45,135.09ZM44.57,107c1.64-2.44-.46-3-2.47-3.52-7-1.93-12.6-.8-13.4,2.57ZM30.43,99.33l16.13,2.28.92-3.19C41.58,97.08,36.33,96.58,30.43,99.33Zm145.93,61.33,1.49,5.51,6.76.33,1.95-4.5Zm10-42.11c-4.6,1.64-8.27,2.84-8.87,7.88l7.9-1.07Zm-8.16,59.26,1.36.11L183,169l-.92-1.19c-1.28.66-3.49,1.13-3.66,2C177.94,172.42,178.26,175.14,178.26,177.8Z"/><path class="cls-1" d="M100.7,59.83,92.15,70l1,1,7.51-4.49.26.36L93,75.62c5.48,1.7,5.92-4.49,9.83-4.82-5.08,12.78-5.08,12.78-2.29,16.29,1.65-6.16,5.65-9.83,11-12.3-3.61,5.55-7.85,10.87-4.5,18.78,2.57-6.67,5.83-12.29,12.44-16.19-3.79,7.64-8.35,14.45-6.37,24.16,5-7,8.63-13.84,16-18.16-1.83,5.14-5.76,9.12-4.29,15.28,7-6.22,13.33-12.05,19.88-17.67,9.27-8,22.78-5.22,27,6.34C177.3,103,179,119.15,168.76,134c-5.94,8.63-4,17,.78,25.2,3.07,5.3,3.73,12,5.5,18.07,2.45,8.42-1.52,15.94-3.42,23.73-2.26,9.29-3.23,18.55-1.52,28.07,2,11.42-2.1,21.66-7.33,31.29-7,12.83-15.41,25.18-27,33.84C122.94,303.78,108.32,311.81,91,308c-15.51-3.43-27.22-12.29-34.15-26.9C51,268.73,44.43,256.65,39.49,243.93c-4-10.35-6.31-21.4-8.91-32.25-1.91-8-3.08-16.15-4.66-24.7a21.13,21.13,0,0,0-2.73,1.34c-3.72,2.46-7.11,1.17-7.18-3.44a71,71,0,0,1,1.59-17.32,29.61,29.61,0,0,0-.13-15.26c-1-3.5-.89-7.32-.93-11,0-1,1.23-2.08,1.89-3.12,1.12.73,2.51,1.24,3.31,2.23a8.22,8.22,0,0,1,1.39,8.92c-1.62,3.95-2.29,8-.69,12.39.94,2.59.26,5.75.39,8.65a4.27,4.27,0,0,0,.59,2.29,48.84,48.84,0,0,0,3.36,3.67c-.07-1.53-.21-3.06-.18-4.59,0-3.22,0-6.47.33-9.66.5-4.37,1.37-8.69,1.9-11.92l2.28,7.9,1.07,0a55.5,55.5,0,0,1,1.92-7.48c1.22-3,2.29-6.56,4.56-8.6,3.55-3.16,4.08-6.87,4.25-11,.89-22.12,9.58-41.58,21.16-59.82,5.31-8.36,13.68-12.73,24.62-13.24a21.73,21.73,0,0,0-1.16,3.86,26.76,26.76,0,0,0,.21,4.14,20,20,0,0,0,3.58-1C94.23,63.42,97,61.81,100.7,59.83Zm-52,196.45-.14,1.64c4.79-1.78,5.19,1.41,6.25,4,1.15,2.83,2.45,5.61,3.79,8.35,4.42,9,11.33,15,21.43,16.7,5,.84,10,1.51,15,1.95,11.14,1,20.69-2.86,27.34-11.68,6.85-9.09,12.61-19,18.9-28.51,3-4.48,5.61-9.6,12.52-7.92.09,0,.28-.39.41-.61-3.08-4.18-8.42-3.79-12.15,1.16-2.22,2.95-4,6.21-6,9.37-4.28,7-7.88,14.55-12.9,21-8.71,11.19-20.33,15.88-34.59,12.33-4.25-1.06-8.5-2.11-12.74-3.22-7.77-2-19-15.18-20.06-23.06-.21-1.51-1.64-3.82-2.75-4C51.7,253.61,50.12,255.37,48.65,256.28Zm7.77-88.13c8.87,9.51,18.84,9.86,27.85,1.54a4.69,4.69,0,0,1,2-1.06c1.24-.31,2.52-.41,3.79-.6-.79-1.6-1.16-3.84-2.45-4.68-2.86-1.86-6-3.69-9.33-4.33-7.62-1.48-15.49-2.52-21.61,4.1-2.13,2.3-4.53,2.53-7.41,2.71a56.86,56.86,0,0,0-11.68,2.22c-1.19.34-2,2.18-2.92,3.33l.78.34,12.69-3.89c-10.2,10.41-10.2,10.41-8.87,13.62l10.24-9.55v10.9l1.1.27c1-2.35,2-4.69,2.92-7.05S55.32,171.11,56.42,168.16Zm7,53h-.94a21.58,21.58,0,0,0,.54,3.85c2,6.12,6.67,9.8,12.47,11.33,4.07,1.07,7.09,3.14,10.17,5.64,7,5.7,15.16,7.07,23.11,3.07,5.11-2.57,10.12-5.37,15.31-7.89a18.58,18.58,0,0,0,10.12-11.58c-1,0-2.15.3-2.43.94-1.79,4.16-5.59,5.73-9.16,7.83-7.67,4.51-15.25-2.73-22.8.2-2.75-3.56-6.25-1.56-9.53-1.3-7.75.6-15.58,1.32-21.55-5.24C66.81,225.87,65.21,223.43,63.46,221.14ZM165,173.62l-.68-1.27c-1.19.36-2.39.7-3.58,1.08-5.29,1.71-9.89.18-14.24-2.88-2.85-2-5.64-4.26-8.79-5.65a14.3,14.3,0,0,0-18.89,7.7c-1.45,3.32-.68,5.13,2,5.31a10.17,10.17,0,0,1,5.15,1.43c6.51,4.77,13.82,4.93,20.49.1,4.38-3.17,5.9-3,9.48.92a7,7,0,0,0,11.2-1.37c-3.42.54-6.88,2.55-9.43-.63Zm-38.79-17.67c-3.43,1.35-6.56,2.13-9.91-1.13-.47,4.85.44,5.79,4.38,5.47,5.13-.42,10.51-2,15.33-.92,5.49,1.19,10.53,4.61,15.68,7.21,2.39,1.21,4.6,2.77,7.24,4.38M94.72,201.1c-1.83-1.73-3-2.76-4.1-3.91-2.54-2.73-4.5-1.94-6.43.78-3.23,4.54-3.26,7.29.68,11.29,3.76,3.83,7.09,7.81,9.11,12.91.59,1.49,2.73,2.88,4.42,3.31,5,1.28,7.49-.33,10.1-4.56,1.22-2,3.49-3.43,5.48-4.84,1.5-1.06,3.41-1.52,5-2.51,3.8-2.41,5.34-6.81,3.18-10.63a8.57,8.57,0,0,0-5.24-3.52c-1.52-.32-3.41,1.09-5.14,1.73l.34,1.22a13.2,13.2,0,0,1,2.52.88c1.33.78,3.51,1.65,3.62,2.65.15,1.48-1,3.26-2,4.62-.74,1-2.11,1.57-3.19,2.34-3.18,2.25-7,3.49-8.94,7.55-1.24,2.59-6,1.52-7.54-1.07-2.45-4-4.83-8.23-7.91-11.76-1.86-2.13-3.43-4-1.91-6.47,1.65-2.7,3.87-1.13,5.8.13C92.7,201.34,93,201.21,94.72,201.1Zm27.93,43.36-1.39-1c-1.79,2.16-3.63,4.29-5.36,6.5-9.61,12.26-29,10.89-37-2.58-1.42-2.42-3.07-4.7-4.61-7-1,1.27-1.47,2.36-1.12,3,3.06,5.23,5.75,10.78,9.56,15.42,4.09,5,10.46,3.14,16.08,3.72,9,.93,15.41-1.95,19.35-10.22C119.48,249.5,121.15,247,122.65,244.46ZM93.85,136.84c-7.08-11.52-14.45-15-22.09-13.87-7.31,1.08-13.4,4.86-15.75,11C69.6,122.89,81.27,131.47,93.85,136.84ZM84,194.32c-2.34,1.18-4.26,1.72-5.59,2.91A23.12,23.12,0,0,0,73,203.53c-3.19,6.32-7,11.12-15,10.52C57,214,55,215.7,55.11,216.39a37.27,37.27,0,0,1-1.54,16.92c-.15.46.56,1.21.87,1.82.49-.47,1.31-.87,1.41-1.4q1.1-6,1.92-12.1a35.14,35.14,0,0,0,0-4.45c9.71,1.1,15.21-3.84,19.24-11.33C79,202.33,81.19,199,84,194.32Zm71.87-49.43c3.57-5.83.46-12.48-5.55-13.14-7.37-.81-13.49,2.15-19.31,6.07a9.74,9.74,0,0,0-1.78,2.17l.77,1c1.7-1,3.4-2,5.1-2.93C144.23,132.88,153.13,135.63,155.89,144.9ZM125,205.07a16,16,0,0,0-.45,2.88c.32,6.35,7.62,15,14,15.7,2.9.31,6.15-.84,8.93-2,1.14-.5,1.46-2.89,2.15-4.43C136.48,221.76,133.58,220.36,125,205.07Zm-66-28.36c1.36,6.87,6.2,9.38,15.2,8.65,5.55-.45,11.41-5.7,11.68-11.26C77.66,182.16,69.08,185.36,59.05,176.71Zm35.18-50.46,1.58-1.76c-2.21-3.61-3.89-7.71-6.74-10.72-7-7.44-13.28-6.51-20.07,2.92C81.65,109.42,88.79,115.63,94.23,126.25Zm75.49,64.61c-1.45,11-8.63,18.73-15.15,26.85C163.52,216.24,173,199.59,169.72,190.87ZM116,164.46c-7.35,7.22-10.18,22.38-5.23,27.56ZM120.24,180c1.27,4.67,6.5,7.57,12.47,8,7.67.53,13.17-1.38,14.94-5.52C138.3,186.25,129.38,186.19,120.24,180ZM96.7,189.22c4.8-6.88,2.41-21.76-3.13-23.34ZM34.17,218.17l4.8,7.1c1.38-2.21,3.79-4.39,3.85-6.64.05-2-2.49-4.07-3.89-6.12ZM21,169.65l-1.83.32c-.55,2.23-1.22,4.44-1.63,6.7-.46,2.5.26,5,3,5,1.56,0,3.12-1.92,4.68-3l.1-1.44C19.56,177.24,19.07,174.16,21,169.65Zm91.35-20.23,5.28-16C113.91,134.42,110.78,142.51,112.31,149.42Zm.76-18.11c-5.91,5.44-8.06,13.88-5.91,17.19Z"/><path class="cls-3" d="M180.41,118.18c-1.55-10.84-2.55-21.3-4.68-31.51-1.44-6.87-4.92-12.92-12.78-14.9-6.4-1.61-11.9.29-16.81,4-5.14,3.94-10,8.29-14.93,12.46l-1.18-1,6.81-9.67c-9.78.82-14.69,8.24-20.78,14.26,2.62-6.56,4.29-13.63,10.77-18.13-6.93-.9-12,2.43-16.18,7.79,1.83-5.3,6.43-7.94,10.46-11.35-6.52-1.64-10.8,2.7-15.66,5.59,1.43-5.06,4.84-7.73,13.76-10.71l-5.53-1.29,5.06-2.26C115.8,59,115.45,59,104,61.6l7.45-3.23c-4.95-4.63-9.59-2-19.85,2.77,1-3.63,5.31-7.44,10.71-8.57,4.54-.95,9.22-1.21,13.84-1.78l.08-1.15c-2.59-.17-5.27-.84-7.76-.41-9.36,1.62-18.79,3.11-27.94,5.56-10.69,2.86-18.36,9.92-23.19,19.89-2.36,4.88-4.51,9.86-6.9,15.11-5.36-4-10.64-2.64-15.69-.07-.32-.39-.5-.52-.47-.59C38.57,76.19,36.68,61.37,46.16,50a105.14,105.14,0,0,1,7.39-8.35c2.76-2.67,6.16-4.28,10.17-3.29,2.1.52,3.11-.1,3.83-2.14,7.13-20.14,26.77-29.88,46-26.6,5,.85,9.72,3.52,14.52,5.45,11.69,4.7,22.75,10.59,31.93,19.3,3.36,3.19,5.91,7.42,8.17,11.53,5.58,10.19,8.72,21.59,16.71,30.62,10.49,11.85,8.05,25.2,2.29,38.18C186.27,116.66,182.35,117.24,180.41,118.18Z"/><path class="cls-1" d="M177,215c-1.14-2.44-2.3-3.7-2.18-4.83a119.1,119.1,0,0,1,13.46-43.44c2.41-4.55,7.16-8,11.35-11.38,1.34-1.06,5.45-.88,6.33.25,1.32,1.69,2,5.4,1,7.08a74.77,74.77,0,0,1-10,12.84c-3.82,4.06-5.65,8.67-6.86,14a118.09,118.09,0,0,1-6.32,19.21C182.9,211,180,212.36,177,215Zm18.74-43c5-1.57,6.67-5.59,8.6-9.08.45-.82-1.28-4.11-2.12-4.15-2.48-.13-6.25-.06-7.31,1.46-4.09,5.86-8.37,11.86-7.3,19.88.23,1.76-1.37,4-2.59,5.64-.77,1.06-2.39,1.5-3.63,2.21l0,1.31c1.3.07,3,.7,3.83.12,4-2.79,6.66-6.3,5.8-11.73-1-6.24,1.64-11.21,7.08-15Zm-16.35,22.76c-2.59,3.91-2.47,6.28.1,7.68s5.63.11,6.89-3.38c.84-2.33.94-4.93,1.37-7.4l-.91-.32-5.49,7.89Z"/><path class="cls-1" d="M13.91,151c-2.63-7.14-5-13.29-3.68-20.21.62-3.25,1.89-6.14,5.15-6.92,3.64-.87,5.6,2,6.9,4.83a65.53,65.53,0,0,1,2.41,7.48c-2.63-1-4.83-2.71-6.8-2.47-2.93.36-5.44,2.28-5.09,6C13.14,143.17,13.47,146.57,13.91,151Z"/><path class="cls-3" d="M190.83,154.43c-5.76-3.78-11.64-3.16-17.87-.6l-2.14-3.54c4.39-5.12,13.88-6.72,19-2.82,1.43,1.08,1.39,4.11,2,6.25Z"/><path class="cls-3" d="M168.66,146.24c.75-1.86,1-4.28,2.34-5.49,4.8-4.37,10.77-5.2,16.66-3.07,1.58.57,2.13,4,2.81,6.67-7.71-4.24-14.13-1.37-20.41,2.57Z"/><path class="cls-3" d="M23.21,122.1c-.83-4.27,1-5.85,4.93-5.54,2.77.22,5.6.07,8.33.53,5.43.91,5.62,1.41,3.92,6.31Z"/><path class="cls-3" d="M43.15,111.89,42,115.39,24.3,113.66C25.49,108.42,36.75,107.18,43.15,111.89Z"/><path class="cls-3" d="M25.05,124a139.73,139.73,0,0,1,13.49,3.86c1.09.42,1.33,3.08,2.13,5.15-5-1-9.1-1.4-12.88-2.73-1.62-.57-2.56-3-3.82-4.65Z"/><path class="cls-3" d="M26.7,132.45l12.16,3.89-7.71,9.32Z"/><path class="cls-3" d="M190.24,157.14l-2.07,2.66c-4.08-.29-7.52-.47-10.95-.82a11.37,11.37,0,0,1-2.8-1.07c.58-.91,1-2.1,1.77-2.68C179.16,153.08,186.6,153.17,190.24,157.14Z"/><path class="cls-3" d="M48.5,95H32.86l-.5-.66a19.86,19.86,0,0,1,3.76-2.23c3-1,6-2.25,9-2.33C48.81,89.74,49.75,92,48.5,95Z"/><path class="cls-3" d="M172.45,135.09c1.5-4.22,8-8.12,11.88-6.48,1.47.62,2.15,3.11,3.37,5Z"/><path class="cls-3" d="M44.57,107,28.71,106c.8-3.37,6.36-4.51,13.4-2.57C44.12,104,46.21,104.53,44.57,107Z"/><path class="cls-3" d="M30.43,99.33c5.9-2.74,11.14-2.25,17-.91l-.92,3.19Z"/><path class="cls-3" d="M176.37,160.66l10.2,1.34-1.95,4.5-6.76-.33Z"/><path class="cls-3" d="M186.41,118.54l-1,6.8-7.9,1.07C178.14,121.38,181.81,120.18,186.41,118.54Z"/><path class="cls-3" d="M178.26,177.8c0-2.66-.32-5.38.18-7.94.17-.87,2.38-1.34,3.66-2L183,169l-3.4,8.86Z"/><path d="M48.65,256.28c1.47-.92,3.05-2.68,4.37-2.49,1.11.15,2.55,2.47,2.75,4,1.08,7.88,12.29,21,20.06,23.06,4.24,1.11,8.49,2.16,12.74,3.22,14.25,3.54,25.88-1.14,34.59-12.33,5-6.44,8.62-14,12.9-21,1.93-3.16,3.74-6.42,6-9.37,3.73-4.95,9.07-5.34,12.15-1.16-.14.22-.33.63-.42.61-6.91-1.68-9.55,3.44-12.52,7.92-6.29,9.51-12.05,19.42-18.9,28.51-6.65,8.82-16.19,12.64-27.34,11.68-5-.44-10-1.11-15-1.95-10.1-1.7-17-7.66-21.43-16.7-1.34-2.75-2.64-5.52-3.79-8.35-1.06-2.59-1.46-5.77-6.25-4Z"/><path d="M56.42,168.16c-1.1,3-2,5.43-2.94,7.88s-1.94,4.7-2.92,7.05l-1.1-.27v-10.9l-10.24,9.55c-1.33-3.21-1.33-3.21,8.87-13.62L35.4,171.74l-.78-.34c1-1.15,1.73-3,2.92-3.33a56.86,56.86,0,0,1,11.68-2.22c2.88-.19,5.28-.41,7.41-2.71,6.12-6.62,14-5.59,21.61-4.1,3.29.64,6.47,2.47,9.33,4.33,1.29.84,1.66,3.08,2.45,4.68-1.26.19-2.55.29-3.79.6a4.69,4.69,0,0,0-2,1.06C75.26,178,65.29,177.66,56.42,168.16ZM86,164.76l-4.66-1.55c-2.51,5.58-5.76,8.51-9,7.72-4.58-1.12-4.89-5.28-5.56-9.77L58.4,165c2.71,5.27,7,6.72,11.46,7.47C76.81,173.62,81.6,169.78,86,164.76Zm-13-3.42c-1.18,1.06-3.06,2.39-2.91,2.67.85,1.64,2.21,4.24,3.33,4.21,1.61,0,3.31-1.94,4.65-3.35.33-.34-.61-1.88-1-2.87a14.88,14.88,0,0,0-1.91,4c-.05.13-1.61,0-1.67-.26A31.74,31.74,0,0,1,73,161.34Z"/><path d="M49.42,158.86c0-1.63-.3-2.81.07-3.73A17,17,0,0,1,52,150.66c3.09-3.78,6.23-7.52,9.5-11.39a5.51,5.51,0,0,1,8-.42c4.34,4.16,8.59,8.25,12.86,12.31a28.06,28.06,0,0,0,3.6,3.12c4.92,3.3,7.86,2.5,10.83-2.78a12.05,12.05,0,0,1,1-1.3c1.37,7.33-3.42,12-10.12,9.81a69.63,69.63,0,0,1-9.51-4.48c-.6-.3-1.55-.84-2.12-1.19-11.4-7.07-15.78-6.48-24.92,3.4A12.6,12.6,0,0,1,49.42,158.86Z"/><path d="M63.46,221.14c1.75,2.29,3.35,4.73,5.29,6.86,6,6.56,13.8,5.84,21.55,5.24,3.28-.26,6.78-2.26,9.53,1.3,7.55-2.93,15.14,4.31,22.8-.2,3.58-2.1,7.37-3.67,9.16-7.83.28-.64,1.4-.91,2.43-.94a18.58,18.58,0,0,1-10.12,11.58c-5.19,2.51-10.19,5.31-15.31,7.89-7.95,4-16.06,2.63-23.11-3.07-3.08-2.49-6.1-4.57-10.17-5.64C69.72,234.8,65,231.12,63.06,225a21.58,21.58,0,0,1-.54-3.85Zm47.11,17.75c-3.91-.22-7.81-.43-11.72-.66-.64,0-1.46,0-1.87-.34-3.82-3.39-7.88-1-12.33-1.18C92,245.63,102.77,246.77,110.57,238.89Z"/><path d="M165,173.62l-7.32,4.73c2.55,3.18,6,1.17,9.43.63a7,7,0,0,1-11.2,1.37c-3.58-3.94-5.09-4.09-9.48-.92-6.67,4.83-14,4.68-20.49-.1a10.17,10.17,0,0,0-5.15-1.43c-2.65-.18-3.42-2-2-5.31a14.3,14.3,0,0,1,18.89-7.7c3.15,1.39,5.94,3.64,8.79,5.65,4.35,3.06,8.95,4.6,14.24,2.88,1.19-.38,2.39-.72,3.58-1.08Zm-42.93-1.48c8,6.26,15.69,11.36,25.31,3.19l-4.56-3.16c-2.54,5-5.17,6.77-8.69,6.05-4.31-.88-5.2-2.37-6-10.66Z"/><path d="M116.35,154.82c3.35,3.26,6.48,2.48,9.91,1.13,6-2.37,11.18-7,20.48-5.09,5,2.17,12.61,13.6,12.25,20.09-2.63-1.61-4.85-3.17-7.24-4.38-5.16-2.6-10.19-6-15.68-7.21-4.82-1-10.2.49-15.33.92C116.79,160.61,115.89,159.67,116.35,154.82Z"/><path d="M94.72,201.1c-1.69.11-2,.24-2.19.13-1.94-1.26-4.15-2.83-5.8-.13-1.52,2.48.06,4.33,1.91,6.47,3.08,3.54,5.46,7.72,7.91,11.76,1.57,2.59,6.3,3.66,7.54,1.07,1.94-4.06,5.76-5.3,8.94-7.55,1.08-.77,2.45-1.32,3.19-2.34,1-1.36,2.15-3.14,2-4.62-.1-1-2.28-1.87-3.62-2.65a13.2,13.2,0,0,0-2.52-.88l-.34-1.22c1.73-.64,3.62-2.05,5.14-1.73a8.57,8.57,0,0,1,5.24,3.52c2.16,3.83.62,8.23-3.18,10.63-1.56,1-3.47,1.45-5,2.51-2,1.41-4.26,2.84-5.48,4.84-2.61,4.24-5.08,5.85-10.1,4.56-1.69-.43-3.83-1.82-4.42-3.31-2-5.1-5.34-9.08-9.11-12.91-3.94-4-3.91-6.75-.68-11.29,1.93-2.71,3.89-3.51,6.43-.78C91.69,198.34,92.89,199.37,94.72,201.1Z"/><path d="M122.65,244.46c-1.49,2.56-3.17,5-4.44,7.71-3.94,8.27-10.33,11.15-19.35,10.22-5.62-.58-12,1.25-16.08-3.72-3.81-4.63-6.5-10.19-9.56-15.42-.35-.61.11-1.69,1.12-3,1.54,2.35,3.19,4.63,4.61,7,7.92,13.47,27.34,14.83,37,2.58,1.73-2.21,3.57-4.33,5.36-6.5Z"/><path d="M93.85,136.84C81.27,131.47,69.6,122.89,56,133.93c2.35-6.1,8.43-9.88,15.75-11C79.4,121.84,86.78,125.32,93.85,136.84Z"/><path d="M84,194.32c-2.83,4.65-5.07,8-7,11.53-4,7.48-9.53,12.43-19.24,11.33a35.14,35.14,0,0,1,0,4.45q-.83,6.07-1.92,12.1c-.1.54-.92.94-1.41,1.4-.31-.61-1-1.36-.87-1.82a37.27,37.27,0,0,0,1.54-16.92C55,215.7,57,214,57.94,214c8,.6,11.86-4.2,15-10.52a23.12,23.12,0,0,1,5.45-6.29C79.76,196,81.68,195.5,84,194.32Z"/><path d="M155.89,144.9c-2.76-9.27-11.65-12-20.76-6.85-1.71,1-3.4,2-5.1,2.93l-.77-1a9.74,9.74,0,0,1,1.78-2.17c5.83-3.92,11.94-6.87,19.31-6.07C156.35,132.41,159.46,139.07,155.89,144.9Z"/><path d="M125,205.07c8.54,15.29,11.45,16.68,24.6,12.11-.69,1.53-1,3.93-2.15,4.43-2.78,1.21-6,2.35-8.93,2-6.35-.67-13.64-9.35-14-15.7A16,16,0,0,1,125,205.07Z"/><path d="M59.05,176.71c10,8.64,18.61,5.45,26.88-2.61-.26,5.56-6.12,10.8-11.68,11.26C65.25,186.1,60.41,183.58,59.05,176.71Z"/><path d="M94.23,126.25C88.79,115.63,81.65,109.42,69,116.7c6.79-9.43,13-10.37,20.07-2.92,2.85,3,4.53,7.11,6.74,10.72Z"/><path d="M169.72,190.87c3.25,8.72-6.2,25.37-15.15,26.85C161.09,209.59,168.27,201.83,169.72,190.87Z"/><path d="M116,164.46,110.74,192C105.79,186.85,108.62,171.68,116,164.46Z"/><path d="M120.24,180c9.15,6.18,18.06,6.23,27.41,2.46-1.76,4.15-7.27,6-14.94,5.52C126.74,187.59,121.5,184.68,120.24,180Z"/><path d="M96.7,189.22l-3.13-23.34C99.11,167.46,101.49,182.34,96.7,189.22Z"/><path d="M34.17,218.17l4.76-5.65c1.4,2,3.94,4.11,3.89,6.12-.06,2.24-2.47,4.43-3.85,6.64Z"/><path d="M21,169.65c-1.89,4.51-1.4,7.59,4.34,7.55l-.1,1.44c-1.56,1.06-3.12,3-4.68,3-2.78,0-3.49-2.45-3-5,.42-2.26,1.08-4.47,1.63-6.7Z"/><path d="M112.31,149.42c-1.54-6.92,1.6-15,5.28-16Z"/><path d="M113.07,131.32l-5.91,17.19C105,145.2,107.17,136.76,113.07,131.32Z"/><path d="M195.7,172l2.34-9.39c-5.44,3.82-8.06,8.79-7.08,15,.86,5.44-1.81,8.94-5.8,11.73-.84.59-2.53,0-3.83-.12l0-1.31c1.24-.72,2.86-1.16,3.63-2.21,1.22-1.67,2.83-3.88,2.59-5.64-1.07-8,3.2-14,7.3-19.88,1.06-1.52,4.83-1.59,7.31-1.46.84,0,2.57,3.33,2.12,4.15C202.36,166.43,200.71,170.45,195.7,172Z"/><path d="M179.35,194.78l2,4.47,5.49-7.89.91.32c-.43,2.48-.53,5.08-1.37,7.4-1.26,3.48-4.33,4.77-6.89,3.38S176.77,198.69,179.35,194.78Z"/><path class="cls-2" d="M86,164.76c-4.41,5-9.2,8.86-16.15,7.69-4.49-.76-8.75-2.2-11.46-7.47l8.41-3.82c.66,4.49,1,8.65,5.56,9.77,3.23.79,6.47-2.13,9-7.72Z"/><path class="cls-4" d="M73,161.34a31.74,31.74,0,0,0,.52,4.42c.06.24,1.62.39,1.67.26a14.88,14.88,0,0,1,1.91-4c.35,1,1,2.19,1,2.87-.23,1.93-3,3.3-4.65,3.35-1.12,0-3.17-2.37-3.33-4.21C70.08,163.59,71.84,162.4,73,161.34Z"/><path class="cls-5" d="M110.57,238.89c-7.8,7.89-18.54,6.74-25.92-2.18,4.45.17,8.51-2.21,12.33,1.18.41.36,1.23.3,1.87.34C102.75,238.46,106.66,238.67,110.57,238.89Z"/><path class="cls-2" d="M122.12,172.14l6.1-4.58c.77,8.29,1.65,9.78,6,10.66,3.52.72,6.15-1,8.69-6.05l4.56,3.16C137.8,183.5,130.07,178.4,122.12,172.14Z"/><path class="cls-4" d="M132.78,167.89a10.41,10.41,0,0,1,5.22,2.19,2.32,2.32,0,0,1,0,3.5l-.79.67a2.39,2.39,0,0,1-3.51-.47,15.86,15.86,0,0,1-1.77-3.4C131.61,169.62,131.67,169.82,132.78,167.89Z"/><polygon points="136.02 171.95 135.03 171.95 134.23 167.67 136.82 167.67 136.02 171.95"/></g><rect class="cls-6" x="63.36" y="225.19" width="0.83" height="72.39"/><rect class="cls-6" x="132.55" y="227.19" width="0.83" height="72.39"/></g></g></svg>