<svg xmlns="http://www.w3.org/2000/svg" viewBox="0 0 222.76 296.29"><defs><style>.cls-1{fill:#010101;}.cls-2{fill:#f5c39c;}.cls-3{fill:#060504;}.cls-4{fill:#f4c39c;}.cls-5{fill:#f3c39c;}.cls-6{fill:#100b08;}.cls-7{fill:#ecbd98;}.cls-8{fill:#ddb08d;}.cls-9{fill:#cea483;}.cls-10{fill:#43362d;}.cls-11{fill:#90735c;}.cls-12{fill:#18120d;}.cls-13{fill:#b69173;}.cls-14{fill:#846a55;}.cls-15{fill:#b18c71;}.cls-16{fill:#c39a7c;}.cls-17{fill:#daae8b;}.cls-18{fill:#030202;}.cls-19{fill:#020202;}.cls-20{fill:#0c0906;}.cls-21{fill:#100f0c;}.cls-22{fill:#0a0705;}.cls-23{fill:#16130f;}.cls-24{fill:#0f0b07;}.cls-25{fill:#130f0b;}.cls-26{fill:#1b1611;}.cls-27{fill:#16110c;}.cls-28{fill:#1e1711;}.cls-29{fill:#17120d;}.cls-30{fill:#29211a;}.cls-31{fill:#282019;}.cls-32{fill:#2a221b;}.cls-33{fill:#574638;}.cls-34{fill:#362c23;}.cls-35{fill:#4f3f33;}.cls-36{fill:#524235;}.cls-37{fill:#695443;}.cls-38{fill:#695444;}.cls-39{fill:#c29a7b;}.cls-40{fill:#896d57;}.cls-41{fill:#6c5646;}.cls-42{fill:#cca282;}.cls-43{fill:#9c7e68;}.cls-44{fill:#79614e;}.cls-45{fill:#3e3228;}.cls-46{fill:#d1492f;}.cls-47{fill:#e8b994;}.cls-48{fill:#fff;}.cls-49{fill:#905e45;}.cls-50{fill:#3e291e;}.cls-51{fill:#f3c29c;}.cls-52{fill:#61743f;}.cls-53{fill:#5b6d38;}.cls-54{fill:#728846;}.cls-55{fill:#977861;}.cls-56{fill:#60733b;}.cls-57{fill:#6c6d65;}.cls-58{fill:#13190c;}.cls-59{fill:#d9ad8a;}.cls-60{fill:#c59d7e;}</style></defs><title>Babis_1</title><g id="Vrstva_2" data-name="Vrstva 2"><g id="Vrstva_1-2" data-name="Vrstva 1"><path class="cls-1" d="M116.73,296.25c28.53-1.81,57.64-35.9,58.34-36.9,3.9-5.53,6.2-11.78,8.1-18.17,3.8-12.76,7.34-25.6,8-39,.11-2.2.81-3.12,2.93-3.83,4.91-1.65,8.53-4.59,9.58-10.21a27.18,27.18,0,0,1,2.72-8.1c3.05-5.32,4.5-11.19,7.07-16.63,2.89-6.12,5.67-12.29,8.53-18.42a4.78,4.78,0,0,0,.7-2.82c-1-6-1.77-12.14-3.24-18.07-1.06-4.29-2.86-4.74-6.92-2.73-2.83,1.4-5.6,2.93-9,4.69.43-3.2.55-5.8,1.14-8.28,3.15-13.24,3.84-26.79,5.2-40.26.46-4.59-1.58-8.68-2-13.07-.54-5.3-1.75-10.34-5-14.82a115.07,115.07,0,0,1-6.68-11.09c-2.59-4.58-5.44-8.84-10-11.8A30.85,30.85,0,0,1,180,21.58c-7-8-16.2-11.36-26.38-12.72a47.49,47.49,0,0,1-8.66-2C135.23,3.69,125.46,1,115.09.27c-10.6-.8-20.79,0-30.25,4.63C71.2,11.51,58.06,19.15,44,24.85c-3.59,1.45-6,4-8.28,7.07-5.15,7.14-8.59,15.3-13.56,22.48-3.8,5.49-4.92,11.48-5.45,17.73C16,80.21,15.61,88.31,15.14,96.4c-.52,9,1.13,17.7,3.83,26.15a97,97,0,0,1,2.43,10.3l-5-2.22c-1.58-.7-3.19-1.33-4.74-2.08-4.39-2.12-6.63-1.34-8.27,3.26-1.12,3.13-2,6.36-2.8,9.58A16,16,0,0,0,3.88,156.3c2.25,2.74,4.38,5.88,4.79,9.44a114.15,114.15,0,0,0,5.22,23.43C17.17,199,23,206.38,34.34,207.22a2.74,2.74,0,0,1,2.92,2.55c.87,3.85,2.1,7.61,3,11.45,1,4.44,2.58,10.95,4.9,14.87,12.77,21.54,20,35.4,35,46.7C89.92,290.2,107,296.87,116.73,296.25Z"/><path class="cls-2" d="M87.35,283.25c-11.25-8.9-19.63-21.79-26.42-34.2a136.21,136.21,0,0,0-10.07-16.39,16.07,16.07,0,0,1-3.27-8.13c-.6-6-3.36-11.62-3.52-17.73a2.42,2.42,0,0,0-.56-1.35c-4.28-5.2-3.74-11.42-3.87-17.56-.18-8.81-2.89-17.17-5-25.62-.82-3.24-3-5.82-1.51-9.88,1.11-2.94.8-6.74.83-10.19a26,26,0,0,1,7.88-18.93c4.1-4,4.5-9.22,5.65-14.35.51-2.27,1.49-4.45,1.57-6.87.06-1.86,1.1-3.56-.29-5.59-.83-1.21.91-2.61,1.84-3.7,3.53-4.14,3.64-6,.45-10.57-.47-.68-1.44-1.23-.82-2.21s1.38-1.87,2.68-1.61c3,.6,5.53-1,8.14-1.92,4.6-1.7,8.77-.29,13.94-.85,20.2-2.22,41.42,20.63,44,19.82.57-.18,1.13-.42,1.73.05,1.37,1.06,2.26,2.08,4.72,1.55s2.76-2.52,4.27-3.49a6.11,6.11,0,0,0,1.18-1.41c.79-.07,5.06-.82,5-1.71-.23-1.09,0-1.78,1.32-1.44.9.19,3.06-1.6,2.69-3-.16-.89-.15-1.63,1.11-1.31,10.4-6.92,31.65-10.84,34.35-10.68,1.47.09,2.94.27,4.41.41,1.13.1,2.67-.59,2.79,1.45-.62.55-1.94.68-1.24,2,.88.88,1.14,2.29,2.43,2.82,1.38,1.47,1.4,1.5,0,3a.81.81,0,0,0,0,1.24c2.25,2.14,2.2,5,2.5,7.74,0,1.5-3.76.56-2,3.17a11.34,11.34,0,0,1,.64,8,2.67,2.67,0,0,0,.26,2.78c3.76,3.44,3.47,8.58,3.22,12.38-.45,6.86,3.52,11.9,4.88,17.9a77.36,77.36,0,0,1,1.29,8.7c1.17,10.55-3.46,20-5.27,29.94-1.43,7.88-2.59,15.64-2.12,23.82.39,6.88-1.35,13.94-3.09,20.75-2,7.65-3.7,15.39-6.34,22.81-2.71,7.63-6.31,15-12.65,20.49-1.33-.27-1.07-1-.48-1.77,4.67-5.12,4.51-12.11,6.95-18.1a60.62,60.62,0,0,1,4.44-9.29c3.06-4.91,4.06-10.56,5.39-16,.59-2.42-.18-5.1-3.3-6.8,1.55,11.14-5.32,19.31-8.76,28.58-1.24,3.34-1.87,6.86-3.49,10.1a12.21,12.21,0,0,1-4.15,5c-1.24-6.84-1.42-13.64-3.7-20-.54-1.34-.34-13.83-10.74-8.48C141.55,229,136,230.36,130,228.51c-1.27-.39-2.83-.2-2.77-2.19a16.47,16.47,0,0,0,.23-5.16c-.36-2.5.7-3.64,3.06-4.62,7.22-3,14.05-6.62,17.19-14.52.69-1.73,1.78-1.94,3.07-.6a27.14,27.14,0,0,1,5,6.4,17,17,0,0,0,1.84,3.2c3.81,4.65,5.69,9.75,3.89,15.78a.87.87,0,0,0,.34,1c2.51-2.36,3.76-8.92,1.94-12-2.33-3.93-4.29-8.05-6.5-12a27.17,27.17,0,0,0-6.25-7.24c-4.57-3.93-8.95-7.87-10.91-14.06-1.62-5.11-5.49-9.37-6.38-14.88-.08-.49-.25-1-.33-1.44-.21-1.32-.82-2.92.55-3.75s2.5.57,3.5,1.37a42,42,0,0,0,18.62,8.19c-2.7-1.6-5.77-2.33-8.61-3.58-2-.87-4.34-1.27-5.23-3.7a1.76,1.76,0,0,1,.69-1.5c3-.5,5.89.1,8.81.44a26.71,26.71,0,0,0,5.55.1c8.15-.78,16.15-1.12,21.95,6.52-4.93-6.51-7.89-8.27-15.59-7.58-6.81.61-13.22-1.35-19.82-2-2.85-.27-5.62.7-8.42,0-3.43-2.45-4.33-5.85-3.52-9.8a30.62,30.62,0,0,1,2.69-8.42,13.11,13.11,0,0,1,10.72-7c6-.64,12-1.66,18-2.26a10.23,10.23,0,0,1,8.92,3.31,17.59,17.59,0,0,0,2.9,2.84,3.41,3.41,0,0,0,3.53.2c1.34-.69,1.33-1.95,1.19-3.22-.54-5-6.13-9.48-11.12-9.15-8.47.56-16.81,2.26-25.31,2.54-2.57.09-4.32,1.93-5.37,4.06a30.45,30.45,0,0,1-3.9,5.8A21,21,0,0,0,129.78,157a200.45,200.45,0,0,0,7,29.15c.73,2.19,1.53,3.87,3.89,5,4.14,1.89,6.07,9.06,3.16,12.51-5.41,6.41-11.57,11.85-20.79,11.84-3.48,0-6.6-.71-9.22-3.12a31.25,31.25,0,0,0-10.51-6.08c-3.91-1.47-5.07-3.63-4.32-7.77a15.85,15.85,0,0,1,.78-2.85c1.86-4.87,3.3-5.49,7.73-3.33-1.28-4-3.1-4.9-6.4-3-4.62,2.67-8.8,5.71-11.05,11s-6.5,9.58-9.37,14.64c-3,5.25-3.79,10.47-1.88,16.33,1.67,5.12,2.63,10.48,5.86,15.62a10.22,10.22,0,0,0-.78-4.74c-2-4.58-2.37-9.57-3.6-14.34-1.06-4.12.25-7.79,2.26-11.32,3.31-5.8,8-10.65,11.05-16.65.88-1.76,2.27-1.2,2.41.39.68,7.61,5.55,10.54,12.26,12.3,3.38.89,6,3.81,9,5.75a7.42,7.42,0,0,1,2.69,5.79c-.32,1.76.28,3.93-2.07,4.81a86.64,86.64,0,0,1-20.23-1.09c-4.33-.86-6.36-.53-9.13,1.72,4.89.33,6.49,4.41,9.47,6.81,8.69,7,18.56,11,29.81,8.53,5.38-1.19,9.86-5,14.29-8.3,2.66-2,5.44-3.83,7.93-6.06a3.54,3.54,0,0,1,4.12-.64,3.26,3.26,0,0,1,1.84,3.66,36.68,36.68,0,0,0,.74,9.15c1,5.22,1.5,8.73,2.49,13,.19.82.83,1.69.09,2.43-4.44,4.49-5.8,10.82-9.51,15.79-2,2.71-4,4.65-7.55,5.27-8.25,1.45-16.41,3.33-24.64,4.89-8,1.51-14.53-1.91-20.31-6.84-5.06-4.32-9.79-9-14.58-13.67-5.29-5.12-7.84-12-10.61-18.5a72.82,72.82,0,0,1-6-21.68c-.1-1.08,0-2.56-1.47-2.54-1.82,0-1.6,1.7-1.44,2.82a112.7,112.7,0,0,0,6.52,24.6c.8,2.07,2,4,2.52,6.15,1.48,6.41,5.09,11.39,9.76,15.81a123.61,123.61,0,0,1,8.8,8.95c3.31,3.84,8.53,3.15,13,5,8.48,3.61,26.41,1.46,35.2.17,2.49-.37-11,10.3-25.25,9.46"/><path class="cls-3" d="M156.66,242.71c-1.48-3.11-1.21-6.48-1.47-9.78-.08-1.05.22-2.18-1.33-2.65a3,3,0,0,0-3.27.83,121.3,121.3,0,0,1-19.86,14.05c-3.61,2.05-7.89,1.73-11.59,1.23C109,245,99.53,241.65,93.43,232.45c-.92-1.38-2.43-1.51-4-1.52-1,0-2.08-.12-2.27-1.4s.7-2,1.76-2.52a8.13,8.13,0,0,1,5.08-.55C101.95,228,110,228,118,228.3c1.55-.21,3-.79,4.55-1s2.77-1.12,4.1-1.81a1.34,1.34,0,0,1,1.32.68,5.9,5.9,0,0,0,.12,1c4.44.2,8.79,2.62,13.33.57,1.12-.51,2.34-.82,3.41-1.41,7.63-4.21,13.92,1.23,13.09,8.8-.34-.33-.64-.87-1-.94-.79-.14-.48.59-.51,1C156.14,237.7,157.34,240.17,156.66,242.71Z"/><path class="cls-4" d="M32.74,175.87a105.55,105.55,0,0,1,2.68,21.06c.17,4-1.72,5.45-5.68,4.35a13,13,0,0,1-9.12-12.39c.06-.89.52-1.11,1.31-.8,2.55-1.18,2.78-3.22,1.3-5.15a44.53,44.53,0,0,1-4.43-7.61c-1.74-2.41-4-4.55-4.19-7.78a2.13,2.13,0,0,1,1-1.8c2-1.42,2-3.86,3.07-5.79a19.83,19.83,0,0,0,1-2.79c.68-1.92,3.13-3.19,2.34-5.59-1-3-2.14-6.08-4.77-8.2-.9-1.41-2.54,0-3.57-1-1.15-2.64-1.13-6.28-5.82-5.51-1.64.27-1-1.62-.7-2.55.33-1.22.48-2.91,2.58-2a55.58,55.58,0,0,1,14.06,8.6,7.52,7.52,0,0,1,2.41,4.46c1,4.66,1.79,9.35,2.67,14-4.9-.62-7.37,1.66-7.44,6.91-.07,4.93,1.16,9.29,5.49,12.26,1.11.77,1.7,2.1,3.27,3A5.16,5.16,0,0,0,28.58,178c-3.27-3.58-2-7.58-1.17-11.52.24-1.09,1-2.26,2.2-2.22,1.58,0,1.15,1.56,1.33,2.58C31.47,169.86,32.73,172.75,32.74,175.87Z"/><path class="cls-5" d="M191.7,195.6c.59-7,.4-13.69,2.28-20.14a5.71,5.71,0,0,1,2.63-3.83c5.43-2.94,6.64-8,5.39-13.28-1.51-6.41,2.17-11.09,4.13-16.39a2.17,2.17,0,0,1,2.43-1.31c.91.24.61,1.46.71,2.3.37,3.06.76,6.15,0,9.18-.9,3.65,1.64,7.22-.32,11-1.88,3.65-2.64,7.83-6.27,10.5-1.78,1.31-2.58,2.87-2.08,5.63C201.73,185.66,197.51,193,191.7,195.6Z"/><path class="cls-6" d="M32.74,175.87l-2.79-11c-3,2.67-3.7,8.28-1.56,11.4A21,21,0,0,1,31.67,182c.16.55.43,1.3-.33,1.59a1.5,1.5,0,0,1-1.29-.33c-4.82-4.77-10.56-9-9.67-17.07a16,16,0,0,1,1.36-4.91c2-4.49,3.44-4.81,7.13-1.81.32.17.86.28.93.52C31.24,165.17,33,170.34,32.74,175.87Z"/><path class="cls-7" d="M204.88,139.34c-2.06-5.75-1.74-6.89,2.77-9.82a25.28,25.28,0,0,1,4.84-2.68c1-.39,2.34-3,3.42-.37.69,1.7,1.79,4.06-1.63,4.87C210,132.35,207.89,136.14,204.88,139.34Z"/><path class="cls-8" d="M211.74,155.21c.72-6.46,1.79-12.84,4.76-19.43C221.08,144.24,214.17,149.17,211.74,155.21Z"/><path class="cls-9" d="M13.66,142.44c1.27.17,2.7-2.46,3.84.21-.94,1.88-.14,3.8-.08,5.69a13,13,0,0,1-1.07,6c-1.23,1.94-1.08,4.36-2.21,6.34a1.71,1.71,0,0,1-.91.67c-.92-2.85,1-5.33,1.08-8.11C14.4,149.61,14.6,146,13.66,142.44Z"/><path class="cls-10" d="M183.73,80.72c-2.18.24-1.9-1.63-2.43-2.82,2.8-.15,5.61-.34,7.47,2.78-1.8-.53-3.36-1.31-4.94-1.35C182.4,79.29,183.91,80.23,183.73,80.72Z"/><path class="cls-11" d="M184.18,95.92c-2.25-2.95,1-2.34,2-3.17a4.77,4.77,0,0,1,2.16,4C184.92,94.08,184.92,94.08,184.18,95.92Z"/><path class="cls-12" d="M14.83,167.75c.58,2.91,3.16,4.78,4,7.58a9.7,9.7,0,0,1-4.57-7.81C14.56,167.26,14.76,167.32,14.83,167.75Z"/><path class="cls-13" d="M182.54,75.87c-.58-1.16-1.94-.8-2.79-1.45,2.19-.79,4.12,1.1,7.07-.08C185.2,76.59,183.81,76,182.54,75.87Z"/><path class="cls-9" d="M13.81,162.83l-.58-1.47.33-.29c1.25-1.92.54-4.53,2.23-6.29,2.1,2.54.4,4.9-.34,7.31C15,162.64,14.62,163.17,13.81,162.83Z"/><path class="cls-14" d="M13.81,162.83l1-.58A3.27,3.27,0,0,1,16,166.43l-1.15,1.31a2,2,0,0,1-.6-.23Z"/><path class="cls-15" d="M21.93,188.09l-1.31.8a5.13,5.13,0,0,1-.36-3.95C21.78,185.61,21.9,186.82,21.93,188.09Z"/><path class="cls-16" d="M137.19,89c-.8.15-1.06.79-1.32,1.44l-1.67-3.83C136.39,86.41,136.6,87.91,137.19,89Z"/><path class="cls-17" d="M145.28,82.59c-.69-.33-1.71-.11-2-1.17C144.17,81.46,145.9,80.05,145.28,82.59Z"/><path class="cls-18" d="M128,227.33c-.56-.13-1.12-1.44-1.68-1.57-1.7-.64-6,3.86-7,2.87v-5.2s0-3.51-2-4.31c-5.23-3.2-10.38-6.44-16.39-8.25-3.23-1-4.38-4.42-5.17-7.64-.31-1.27.14-2.72-1.14-4.23-1.73,5.68-5.5,9.78-8.78,14.19-4.12,5.55-5.87,11.29-3.82,18.36,1.36,4.7,2.85,9.43,3.8,14.27.19,1,1,2.39-.66,2.76-1.19.27-1.42-1-1.89-1.89-3.07-5.71-4.34-12-6.13-18.17a13.72,13.72,0,0,1,.58-9.43,55,55,0,0,1,5.77-10.31c1.78-2.51,4-4.9,5.06-7.71,2.41-6.57,7.79-9.88,13.15-13.36,1.75-1.14,3.37-.58,4.83.41a6.13,6.13,0,0,1,2.62,5.07,1.52,1.52,0,0,1-1,1.4c-.79.33-1-.33-1.44-.76-3.11-3.12-3-3.06-5.31.88a12.27,12.27,0,0,0-1.72,5.59c-.12,2.53.63,4.38,3.63,5.08,4.5,1.06,8.3,3.56,11.82,6.6,4.22,3.64,14.38,3.38,18.51-.42,3.08-2.84,7-4.63,9.6-8.08,2.72-3.66.42-10.54-4-11.75-2.07-.56-2.36-2.43-2.84-4-2.76-9-4.87-18.08-6.85-27.26-1.93-8.95-.47-16.67,5.74-23.66,1.95-2.19,2.7-5.43,5.35-7.29,1-.72,1.88-1.5,3.3-1.18,4.37,1,8.87.11,13-.79,4.83-1.07,9.72-.64,14.5-1.77,2.78-.66,8.64,5.51,9.37,9.39.37,2,1.48,4.42-1.19,5.54-2.4,1-4.72.82-6.37-1.88-3.06-5-7.82-5.16-13-4.44-4.73.66-9.43,1.47-14.22,1.88-5.11.44-9.61,3.13-11.35,8.41-1.67,5.08-3.87,10.43.92,15.22.51,1.18,1.85,1.07,2.7,1.73,1.64.84,3.41,1.52,4.5,3.14a57.42,57.42,0,0,0,13.58,5.75c1.13.35,2.82.47,2.26,2.2-.45,1.41-1.91.81-2.92.51-7.71-2.32-15.23-5-21.86-11.63.44,4.61,1.09,8.23,2.7,11.44,2.26,4.51,4.84,8.84,6.46,13.66.73,2.16,2.62,3.66,4.36,4.89,8.31,5.87,12.56,14.72,17.37,23.16,2.63,4.61.46,9.13-.63,13.63-.27,1.13-1.5,1.35-2.44,1.26-1.37-.13-1.21-1.34-1.12-2.31a13.62,13.62,0,0,1,.4-1.8c.94-4.13.69-7.88-2.15-11.46-3.32-4.19-5-9.63-9.49-13-3.28,9.08-10.45,13.61-18.94,16.46-1.74.58-2,1.27-1.84,2.85C128.43,222.33,128,224.3,128,227.33Z"/><path class="cls-19" d="M107.32,172a15.26,15.26,0,0,0,.58-8.06c-.36-2-.5-3.9-3.25-2.12a1,1,0,0,1-1.55-.37c-.25-.65.3-1.11.69-1.59,3.47-4.23,3.43-4.77-.91-8.24a8.16,8.16,0,0,1-2.92-4.58c-.41-1.67-.81-3.36-1.38-5-1.12-3.2-2.43-4.69-6.82-4.44-9.66.57-18.12,3.87-26.54,8-2.61,1.29-5.63,1.76-8.49,2.48-.92.23-2,.3-2.64-.77-.49-.9.08-1.61.57-2.35,2.93-4.46,7.26-7.71,10.41-12a2.56,2.56,0,0,1,1.64-.74c5.8-.7,11.11-3.31,16.85-4.21s11.53-1.48,16.24,3.33c.79.81,2.23,1,3.38,1.42a8,8,0,0,1,3.78,2.26c4.51,6,9,12,8.1,20.22-1,9-1.71,18,2.2,26.55.57,1.27.78,2.67-.57,3.7s-2.48.23-3.61-.64a59.55,59.55,0,0,1-9.5-9.29c-.71-.86-1.58-1.69-1.49-2.88s-.39-2.63,1-3.33,1.94.6,2.71,1.33C106.12,171.09,106.5,171.36,107.32,172Z"/><path class="cls-20" d="M64.88,107.68c5.84-6,25-9.87,32.13-7.09a170.74,170.74,0,0,1,20.83,9.92c3.7,2,8.16.85,12-.26,15.29-4.46,30.32-2.46,45.29,1.29,3.28.82,6.66,2.28,7.23,6.49.1.77.09,1.56-.79,1.84s-1.43-.34-1.63-1.09c-1-3.78-4.27-4.55-7.34-5.35a79.79,79.79,0,0,0-44.51.79,17.05,17.05,0,0,1-15-1.92c-11.32-7.76-23.76-9.49-37-6.85C72.51,106.16,69.18,107.94,64.88,107.68Z"/><path class="cls-21" d="M95.49,151.09c1.45.64,2.92,1.25,4.35,1.95a1.23,1.23,0,0,1,.83,1.45.88.88,0,0,1-1.16.62c-7.07-3-13.56,2-20.48,1.46-2.56-.22-5.21,0-7.65-.81a6.1,6.1,0,0,0-5.88.75c-1.57,1.46-3.2,2.81-5.46,3-1.24,0-2.53.3-3.61-.6-5.76-1.11-17.16-7.61-20.15-11.64,5.74-.71,9.6,2.66,13.52,5.61,3.46,2.6,7.07,3.86,11.35,2.69,1.44-1.37,3.6-1.21,5.11-2.42,1.24-1,2.47-2,3.66-3.06a16.77,16.77,0,0,1,2.36-1.84,14.17,14.17,0,0,1,5.29-2.21,8.71,8.71,0,0,1,3.32,0,21.66,21.66,0,0,0,5.07.52,14.16,14.16,0,0,1,4.51,1.12c.84.43,1.65.9,2.5,1.3A11,11,0,0,1,95.49,151.09Z"/><path class="cls-22" d="M120.15,291.11"/><path class="cls-23" d="M154.91,153.85c-5.93.45-11.9-2-17.82.16a1,1,0,0,1-1.25-.51,1.4,1.4,0,0,1,.44-1.95c1.92-1.72,3.88-3.4,5.83-5.09,1.5-2,4.06-2.89,5.56-4.93,4.14-1.77,8.37-2.75,12.86-1.48,1,.29,2.25.32,2.62,1.66-1.07,1.51-2.41.36-3.37.45a14.91,14.91,0,0,1,2.65.76,1.51,1.51,0,0,0,.71.29A.74.74,0,0,1,163,142c4-1.25,6.73,1.28,6.44,6.55-.79,1.13-2.32.64-3.24,1.48a23.81,23.81,0,0,1-5.37,2.81C158.88,153.37,157,154.43,154.91,153.85Z"/><path class="cls-24" d="M160.4,96.69c4.66,1.52,8.26,1.08,11.46,2.61.78.37,1.62.63,2.35,1.06,1.46.86,3.66,2,2.7,3.7s-2.44-.49-3.67-1a33,33,0,0,0-8.94-2.2C151.11,99.11,138,99.48,125.11,103a15.33,15.33,0,0,1-7.67,0c-.74-.18-1.44-.61-1.38-1.49a1.11,1.11,0,0,1,1.31-1c7.21.7,13.57-3.08,20.56-3.79C145.94,95.88,153.85,95.43,160.4,96.69Z"/><path class="cls-24" d="M159.9,88.83c2.49.81,4.42.58,6.13,1.39.42.2.87.34,1.26.57.78.46,2,1.09,1.44,2s-1.31-.26-2-.55A17.66,17.66,0,0,0,162,91a52.88,52.88,0,0,0-21,1.16,8.2,8.2,0,0,1-4.1,0c-.4-.1-.77-.33-.74-.8a.6.6,0,0,1,.7-.54c3.85.37,7.26-1.65,11-2C152.16,88.4,156.39,88.16,159.9,88.83Z"/><path class="cls-25" d="M162.9,142.12c-2.39-2.41-5.49-1.79-8.3-1.58-2.36.18-4.66,1.25-7,1.92a19.19,19.19,0,0,1-4.11,2.44c-1,.53-2.36,1.07-2.39-1,1.58-2.77,4-6,6.72-5.78,3.12.2,6.23-.27,9.35.11,6.76.83,12.27,4.16,17.55,8a9.47,9.47,0,0,1,2.5,3.16c1.83,3.41,3.45,3.9,6.9,2,2.14-1.16,3.84-3.42,6.86-3.12-2.71,5.65-7.94,8.53-13.25,6.83-3.81-1.22-6.33.29-9,2.46-.93.75-2.28,2.18-3.46.5s.87-2,1.55-2.83a12,12,0,0,1,3.42-3.59c.89-.56,2-.83,2.36-2.13-.84.12-.78,1.16-1.49,1.31a1.62,1.62,0,0,1-1,0,2.15,2.15,0,0,1-1.07-2.22c-.29-3.83-1.81-6.49-6.13-6.54Z"/><path class="cls-26" d="M59.92,170.32c-4.69,2-8.82,5-13.84,8,0-4.48,3.87-5.17,5.55-7.46.41-.78.42-1.3-.71-1.09-2.11.52-4.23,1-6.7-.05,5.21-2.58,10.76-2.94,15.91-4.66a22.06,22.06,0,0,0,3.21-.84c4.31-2.24,8.1-2.53,12.88-.11,5.57,2.82,11.27,0,16.47-2.82.87-.47,1.91-1.89,2.74-.55.73,1.18-.7,1.86-1.63,2.44-3.71,2.31-7.95,3.32-12,4.67-2.4.8-4.66-1.29-7.08-1.65-1.25.34-2.35-.7-3.59-.37a13.18,13.18,0,0,0-1.83.41,18.71,18.71,0,0,0-4.71,2.51C63.2,169.81,61.5,169.9,59.92,170.32Z"/><path class="cls-27" d="M57.49,95.85a12,12,0,0,1,6.76-2.27c5.86-.19,11.4-1.77,16.86-3.7a15,15,0,0,1,7.28-.77,77.67,77.67,0,0,1,22.37,7.09c1.17.57,3.34,1.19,2.28,3.05-.93,1.64-2.42,0-3.55-.43a118.18,118.18,0,0,0-20.21-6.72,7.08,7.08,0,0,0-3.94.5C74.4,96.26,65.2,97.38,57.49,95.85Z"/><path class="cls-12" d="M137.91,162.24c-1.19-.39-2.26-.92-2.57-2.3,2.59.62,5-.84,7.67-.38,8.48,1.49,17,2.75,25.65,1.8a6.07,6.07,0,0,1,4.72,1.67c2.35,2,4.75,3.9,7.11,5.87.79.66,2.39,1.23,1.57,2.47-1,1.58-2.17-.06-3.08-.59-1.81-1-3.83-2-5.14-3.55-2.73-3.2-6.11-3-9.69-2.73a76.05,76.05,0,0,1-21.28-1.05C140.87,164.52,139.81,161.66,137.91,162.24Z"/><path class="cls-28" d="M76,113.29a51,51,0,0,1,11.7-2.08c5.69-.24,10.91,1.54,16,3.73,8.7,2.3,17.26,5.36,26.52,4.36,2.71-.29,5.45-.24,8.18-.34,1.43.16,1.13.85.49,1.64a42.87,42.87,0,0,1-17.77,1.68c-6.19-.87-12.36-2-17.91-5.17-7.05-3.75-14.49-4.3-22.19-2.7-1.4.67-2.92.43-4.4.57-.6.05-1.31.11-1.57-.5S75.34,113.44,76,113.29Z"/><path class="cls-29" d="M85.74,147.32c-1.84.64-3.56-.07-5.31-.47-1.17-1.66-2.67-.37-4-.43A12.54,12.54,0,0,0,72,148.69c-.62.56-1.4.91-2,1.5-1.18,1-2.62,1.68-3.64,2.89A6.68,6.68,0,0,1,62,154.45c-1.16-.09-2.93-.21-1.8-2.31,4.72-1.94,8.63-5.24,13-7.74a33.81,33.81,0,0,1,16.31-4.2c.88,0,2.31-.42,2.26,1.09,0,1.09-1.27.85-2.09.93-1.4.13-2.91-.41-4.44.86,3.2,1,6.23,1.77,9.12,2.91,2.57,1,2.64,1.86.75,3.57a1.31,1.31,0,0,1-1,.06c-1-.78-2.28-.71-3.25-1.45C89.25,147.47,87.67,146.35,85.74,147.32Z"/><path class="cls-12" d="M141.1,257.4c.88.19,1.83.5,1.69,1.56s-1.16,1.17-2,1.14c-9.56-.29-18.74,2.49-28.14,3.49a4.3,4.3,0,0,1-3.11-.61c-.51-.34-1.24-.55-1-1.29.13-.36.71-.62,1.14-.82C113.15,259.22,137.54,256.55,141.1,257.4Z"/><path class="cls-30" d="M50.19,159.78l1.31.19c1.33-.39,2.57.82,3.92.22l0-.1a17.7,17.7,0,0,1,4.72-.74c1.21-.06,2.2-.85,3.36-1.05.73-.13,1.79-.39,1.34,1.07-4,3.35-9.1,3.31-13.81,4.49a8,8,0,0,1-4.38-1c.71-2.9-2.13-1.71-3.1-2.69-.82-.37-2,0-2.4-1.21,1.81-1.2,3.44.26,5.16.36C47.59,159.35,48.81,160.21,50.19,159.78Z"/><path class="cls-31" d="M188.06,168.49c-3.85-3.2-7.3-6.82-11.53-9.46a1.07,1.07,0,0,1-.33-1.59c.41-.58,1-.54,1.66-.45C181.66,157.5,187.78,164,188.06,168.49Z"/><path class="cls-32" d="M166,154a27.28,27.28,0,0,1-9.76,2.61c-1,0-3.5.41-1.58-2.1,1.86-1.27,4.24-.9,6.17-1.94a47.57,47.57,0,0,0,5.48-2.68c1.41-.59,2.51-.34,3.11,1.18C169.1,153,168.1,154.14,166,154Z"/><path class="cls-33" d="M71,165.22c1.59-1,2.64.07,3.73,1-2,3.92-6.47,3.5-9.64,5.36-1,.59-2.12,1.15-3.22,1.66-.88,0-1.12-.41-.81-1.21q.11-.31.2-.63c.83-1.37,2.24-2,3.56-2.71,1.94-.78,3.95-1.41,5.84-2.28A1.12,1.12,0,0,0,71,165.22Z"/><path class="cls-34" d="M81,114.41c7.89-3.12,15.18-1.39,22.19,2.7C96.11,114,88.57,114.25,81,114.41Z"/><path class="cls-2" d="M60.23,152.14c-.5,1.66.42,2.08,1.73,1.73,1.54-.42,3-1.1,4.49-1.67,1.32.19.85.86.41,1.53a8.21,8.21,0,0,1-5.71,1.87C61.12,154.37,57.37,154.15,60.23,152.14Z"/><path class="cls-34" d="M103.72,114.95c-5.27-1.55-10.53-3.19-16-3.73A25.9,25.9,0,0,1,103.72,114.95Z"/><path class="cls-35" d="M46.75,162.24c1.12,1.31,2.91.87,4.24,1.62-2.42.08-4.84.19-7.26.23-.88,0-2.28.62-2.4-.76s1.46-1,2.27-1.37c.9-.1,1.69-.87,2.68-.47A.88.88,0,0,1,46.75,162.24Z"/><path class="cls-36" d="M50.19,159.78c-1.81,1-3.45-.23-5.18-.39-1.26-.11-2.48-1-3.79-.21-1.09.29-2.1.32-2.79-.79.77-1.61,2.07-.93,3.2-.68C44.49,158.37,47.34,159.09,50.19,159.78Z"/><path class="cls-37" d="M141.12,143.88c.9,1.63,1.82.4,2.75,0,1.25-.49,2.5-1,3.75-1.45-1.11,2.33-3.45,3-5.51,4C142.27,145.41,139.24,145.58,141.12,143.88Z"/><path class="cls-38" d="M64.79,159.37c-1.69-1.45-3.09,1-4.72.36q-.53-.58.18-.91l5.25-2.33C64.49,157.26,66.41,158.75,64.79,159.37Z"/><path class="cls-2" d="M166,154l3-2.71c0-.85.39-1,1.11-.77a2.32,2.32,0,0,1,.69.18,1.28,1.28,0,0,1-.28,1.61c-1.17,1.06-2,2.56-3.71,2.93Z"/><path class="cls-39" d="M64.85,169.24l-3.62,2.16-1.31-1.08,4.27-2.14A1.08,1.08,0,0,1,64.85,169.24Z"/><path class="cls-2" d="M161.16,153.11a18.55,18.55,0,0,1-6.48,1.44,1.19,1.19,0,0,1,.22-.7c1.73-1.08,3.76-1.16,5.65-1.72C161.39,152.07,161.48,152.46,161.16,153.11Z"/><path class="cls-34" d="M76,113.29c-.91,1-.22,1.39.67,1.69l-3.36.82c-1.2-.26-1.37-.79-.45-1.63C73.83,113.7,74.75,112.94,76,113.29Z"/><path class="cls-36" d="M43.88,160l5.41,1.23c-.63,1.45-1.71.89-2.55,1l-.14-.29c-.42-.81-1.61-.27-2-1.15l-.29-.16-.33,0A.39.39,0,0,1,43.88,160Z"/><path class="cls-40" d="M60.26,158.82l-.18.91c-1.55.32-3.08,1-4.71.36l1.07-1.16C57.7,158.39,59,158.78,60.26,158.82Z"/><path class="cls-41" d="M61,172l.81,1.21c-.93.45-1.88,2.28-2.81.73C58.39,172.9,60.09,172.45,61,172Z"/><path class="cls-42" d="M43.88,160a4.53,4.53,0,0,1,.12.61c-1.9-.62-4.29,0-5.57-2.19l2.79.79Z"/><path class="cls-2" d="M94.54,149.23a.74.74,0,0,1,.61.33l.33,1.53c-1.21.1-1.81-.9-2.65-1.46C93.12,148.23,93.86,148.88,94.54,149.23Z"/><path class="cls-43" d="M50.92,169.76a3.09,3.09,0,0,1,2.75-.58,2.45,2.45,0,0,1-2,1.66Z"/><path class="cls-44" d="M72.83,114.17a1.42,1.42,0,0,0,.45,1.63c-.64.5-1.49.69-1.8-.09C71.08,114.72,71.92,114.3,72.83,114.17Z"/><path class="cls-45" d="M138.91,120.6a1.63,1.63,0,0,0-.49-1.64c.72-.39,1.43-.31,1.66.49S139.76,120.69,138.91,120.6Z"/><path class="cls-42" d="M44.62,160.8c.85.05,1.78,0,2,1.15l-3,0Z"/><path class="cls-36" d="M55.41,160.19c-1.37,1-2.63.23-3.92-.22Z"/><path class="cls-46" d="M142.35,232.45c-3.32,2.36-6.55,4.85-10,7.05-4.15,2.67-8.5,4.1-13.66,2.7-4.87-1.32-9.94-1.92-14.53-4.2-.83-.41-2.2-.67-1.85-1.91s1.61-.8,2.54-.62a40.2,40.2,0,0,1,4.7,1.05c8.93,2.83,17.24.21,25.5-2.81,2.19-.8,4.2-2.1,6.59-2.38C142.44,231.37,142.64,231.76,142.35,232.45Z"/><path class="cls-47" d="M122.83,228c-.76-.27-1.73-.2-2-1.25-.1-1.75-.12-3.51-.31-5.24-.23-2.15.57-3.17,2.8-3.3,2.57-.15,2.69,1.34,2.57,3.25-.08,1.43.21,2.34.14,4.31C126.4,228.85,124.77,227.86,122.83,228Z"/><path class="cls-48" d="M119.65,231.13c1.63,0,1.73.56,1.39,1.62-1,3-3.48,1.6-5.32,1.76s-1.54-1.65-1.17-2.42C115.83,229.48,118.27,232,119.65,231.13Z"/><path class="cls-48" d="M130.25,231.9a8.68,8.68,0,0,1-5.3,1.7c-.9,0-.72-1.19-.41-1.8,1.09-2.17,3.19-1.07,4.86-1.32C129.94,230.41,130.49,231,130.25,231.9Z"/><path class="cls-48" d="M109.63,231c1.47,0,2.31.37,1.92,1.74-.44,1.55-1.64,1.13-2.7.92s-2.38-.67-2-2.06C107.38,229.71,109,231.52,109.63,231Z"/><path class="cls-48" d="M100.41,230.13c1.86.16,3.25-.39,4,1a1.18,1.18,0,0,1-.74,1.51C101.94,233.1,101.41,231.84,100.41,230.13Z"/><path class="cls-49" d="M142.35,232.45l-.68-1.12,4.4-2c.67.06.9.35.51,1Z"/><path class="cls-50" d="M146.58,230.35l-.51-1c1.07-1,2.17-1.85,4-1.46A5.68,5.68,0,0,1,146.58,230.35Z"/><path class="cls-12" d="M16,166.43l-1.15-4.18c-.16-2.55,1.79-4.85.9-7.49-.26-.12-.35-.25-.26-.37s.18-.21.26-.19a21.9,21.9,0,0,0,.36-9.77c-.23-1.26-.44-2.29,1.43-1.79,3.63,2.26,4.11,6.47,6,9.8a1.45,1.45,0,0,1-.1,1.36c-3.69,3-4.11,7.65-5.71,11.69A1.38,1.38,0,0,1,16,166.43Z"/><path class="cls-51" d="M15.72,154.2a.5.5,0,0,1,0,.56c-1,2-.5,4.53-2.17,6.31C14.12,158.74,14,156.19,15.72,154.2Z"/><path class="cls-52" d="M81.16,153.86c-1.77.73-3-.2-4.27-1.28-.79-.69-1.39-1.47-.88-2.53a2.26,2.26,0,0,1,1.25-1.18c1.57-.35,1,1.31,1.61,1.92.42.44.79.92,1.18,1.38C80.28,152.84,81.91,152.57,81.16,153.86Z"/><path class="cls-53" d="M81.16,153.86l-1.11-1.68c2.76.61,4.74-.56,6.16-3.15C87,152.36,85.66,153.56,81.16,153.86Z"/><path class="cls-2" d="M85.74,147.32c-.28-1.15.1-1.54,1.28-1.25a7.68,7.68,0,0,1,3.89,1.66q.22.36,0,.6t-.29.2Z"/><path class="cls-2" d="M71.5,148.59c1.11-1.67,3-2,4.65-2.82.72,0,1.71-.24,1.19,1.12L72.63,149A.83.83,0,0,1,71.5,148.59Z"/><path class="cls-2" d="M66.86,153.72l-.41-1.53a8.47,8.47,0,0,1,3.39-2.5c.49.13.48.59.63,1Z"/><path class="cls-2" d="M77.35,146.88c-.1-.69-.67-.88-1.19-1.12,1.54-.1,9-.13,10.39.27,2.1.61-.67.84-.61,1.35C83.72,146.7,78.38,146.87,77.35,146.88Z"/><path class="cls-48" d="M89.44,152.6c-.9-.16-.89-.63-.72-1.11a1.19,1.19,0,0,1,1.73-.77c.46.18,1,.61.67,1A4.89,4.89,0,0,1,89.44,152.6Z"/><path class="cls-48" d="M74.32,153.22c-1.46.5-2.45.4-3.33-.57C72.18,151.23,73.13,151.44,74.32,153.22Z"/><path class="cls-2" d="M90.65,148.52l.26-.79c1.3.27,2.69.36,3.63,1.5l-1.7.39A2.9,2.9,0,0,1,90.65,148.52Z"/><path class="cls-2" d="M70.46,150.65l-.63-1,1.67-1.11,1.13.43Z"/><path class="cls-54" d="M150.36,147c1,2.64,2.63,2.56,4.55,1,1.55-.06.68-2.64,2.52-2.4-.22,1.4,2,3.08-.33,4.18-2.07,1-4.35,2.17-6.56.63-1.66-1.16-3.48-2.61-1.94-5.14C150,144.8,150,144.8,150.36,147Z"/><path class="cls-55" d="M162.89,142.11c.54,1.47,2.94.43,3.37,2.67l-9.72-2.88c2.47-1.29,4.4-.19,6.35.22Z"/><path class="cls-56" d="M157.43,145.53c-1.18.44-.63,2.7-2.52,2.4,2.14-1.71-.59-3.23-.31-5C156.71,142.69,157.19,144,157.43,145.53Z"/><path class="cls-2" d="M170.13,150.57l-1.11.77a1.89,1.89,0,0,0-2.7-.86c-.73,0-1-.35-.71-1,.87-1.45,2.1-1.29,3.42-.78Z"/><path class="cls-48" d="M142.35,150.2c.9-.78,1.23-2.64,2.91-1.75.41.21.84,1.26.66,1.57C145,151.58,143.65,150.41,142.35,150.2Z"/><path class="cls-2" d="M165.61,149.43l.71,1a16.22,16.22,0,0,1-5.16,2.63l-.6-1Z"/><path class="cls-48" d="M164.58,147.26c-1.1.8-2,1.68-3.3,1a1.88,1.88,0,0,1,.11-1.65C162.59,145.55,163.49,146.63,164.58,147.26Z"/><path class="cls-57" d="M150.21,143.8c.32-.64.67-1.35,1.53-1.11a1.36,1.36,0,0,1,.8,1c.07,1.13-.9,1.16-1.68,1.35A.84.84,0,0,1,150.21,143.8Z"/><path class="cls-58" d="M150.21,143.8l.64,1.21-.5,2c-.48-.7-.29-2.05-1.76-1.76A2.07,2.07,0,0,1,150.21,143.8Z"/><path class="cls-2" d="M170.55,152.36l.28-1.61c1-.78.48-2,.75-3.08C175.08,149.56,175.08,149.56,170.55,152.36Z"/><path class="cls-59" d="M64.85,169.24l-.66-1.07a9.13,9.13,0,0,1,5.1-2.59c1,0,2.31-.54,2.11,1.33"/><path class="cls-60" d="M71.4,166.92c-.31-1.07-1.34-1-2.11-1.33l1.69-.36c.55.3,1.54,0,1.65.79C72.72,166.64,72,166.8,71.4,166.92Z"/><rect class="cls-1" x="87.61" y="229.46" width="0.91" height="56.98"/><rect class="cls-1" x="151.24" y="229.46" width="0.66" height="50.55"/></g></g></svg>